<?xml version="1.0" standalone="no"?>
<!DOCTYPE svg PUBLIC "-//W3C//DTD SVG 20010904//EN"
 "http://www.w3.org/TR/2001/REC-SVG-20010904/DTD/svg10.dtd">
<svg version="1.0" xmlns="http://www.w3.org/2000/svg"
 width="300.000000pt" height="196.000000pt" viewBox="0 0 300.000000 196.000000"
 preserveAspectRatio="xMidYMid meet">

<g transform="translate(0.000000,196.000000) scale(0.100000,-0.100000)"
fill="#000000" stroke="none">
<path d="M1075 1939 c-152 -11 -341 -36 -459 -60 -345 -70 -531 -245 -590
-559 -24 -127 -22 -573 3 -695 62 -296 246 -464 587 -535 447 -93 1007 -109
1494 -44 281 38 419 72 530 130 166 87 268 217 322 411 21 73 22 100 23 393 0
275 -2 324 -18 385 -29 109 -90 226 -153 294 -157 170 -360 235 -864 276 -190
16 -687 18 -875 4z m-8 -499 c61 -37 68 -146 12 -196 -20 -18 -42 -19 -307
-22 -198 -2 -294 1 -313 9 -85 35 -84 172 2 216 17 9 101 13 299 13 255 0 277
-1 307 -20z m1345 -7 c59 -27 122 -92 144 -149 23 -61 15 -149 -21 -210 l-26
-45 36 -41 c53 -58 68 -101 69 -188 1 -125 -38 -195 -138 -248 l-51 -27 -262
0 -263 0 -26 26 c-34 34 -43 102 -20 147 29 57 53 62 279 62 144 0 206 3 215
12 7 7 12 27 12 44 0 59 -18 64 -248 64 -120 0 -211 4 -223 10 -46 25 -64 117
-32 170 26 45 50 50 248 50 179 0 184 1 199 22 20 29 20 47 -1 70 -15 17 -41
18 -423 18 -399 0 -430 -2 -430 -31 0 -4 48 -42 108 -85 196 -141 227 -182
227 -304 0 -90 -22 -138 -89 -197 -89 -78 -83 -77 -683 -81 -590 -3 -575 -5
-607 62 -20 42 -20 67 -2 111 28 66 20 65 574 65 483 0 499 1 517 20 34 37 14
62 -124 159 -137 96 -173 131 -202 196 -42 92 -9 210 77 278 56 44 90 46 619
44 489 -2 501 -2 547 -24z m-1333 -349 c52 -43 54 -129 4 -178 l-26 -26 -297
0 c-283 0 -299 1 -323 20 -56 44 -56 146 0 189 25 20 38 21 319 21 l292 0 31
-26z"/>
</g>
</svg>
